<svg width="120" height="26" viewBox="0 0 120 26" fill="none" xmlns="http://www.w3.org/2000/svg">
    <path d="M14.742 3.748V7.31H9.906V22H5.46V7.31H0.624V3.748H14.742ZM21.4193 3.748V22H16.9733V3.748H21.4193ZM45.3113 3.748V22H40.8653V11.054L36.7833 22H33.1953L29.0873 11.028V22H24.6413V3.748H29.8933L35.0153 16.384L40.0853 3.748H45.3113ZM52.9545 7.31V11.002H58.9085V14.434H52.9545V18.438H59.6885V22H48.5085V3.748H59.6885V7.31H52.9545ZM77.5487 12.666C78.2073 12.77 78.8053 13.0387 79.3427 13.472C79.8973 13.9053 80.3307 14.4427 80.6427 15.084C80.972 15.7253 81.1367 16.41 81.1367 17.138C81.1367 18.0567 80.9027 18.8887 80.4347 19.634C79.9667 20.362 79.282 20.9427 78.3807 21.376C77.4967 21.792 76.448 22 75.2347 22H68.4747V3.878H74.9747C76.2053 3.878 77.254 4.086 78.1207 4.502C78.9873 4.90067 79.6373 5.44667 80.0707 6.14C80.504 6.83333 80.7207 7.61333 80.7207 8.48C80.7207 9.55467 80.426 10.4473 79.8367 11.158C79.2647 11.8513 78.502 12.354 77.5487 12.666ZM70.8407 11.704H74.8187C75.928 11.704 76.786 11.444 77.3927 10.924C77.9993 10.404 78.3027 9.68467 78.3027 8.766C78.3027 7.84733 77.9993 7.128 77.3927 6.608C76.786 6.088 75.9107 5.828 74.7667 5.828H70.8407V11.704ZM75.0267 20.05C76.2053 20.05 77.124 19.7727 77.7827 19.218C78.4413 18.6633 78.7707 17.892 78.7707 16.904C78.7707 15.8987 78.424 15.11 77.7307 14.538C77.0373 13.9487 76.11 13.654 74.9487 13.654H70.8407V20.05H75.0267ZM92.636 22.182C90.9546 22.182 89.4206 21.792 88.034 21.012C86.6473 20.2147 85.5466 19.114 84.732 17.71C83.9346 16.2887 83.536 14.694 83.536 12.926C83.536 11.158 83.9346 9.572 84.732 8.168C85.5466 6.74667 86.6473 5.646 88.034 4.866C89.4206 4.06867 90.9546 3.67 92.636 3.67C94.3346 3.67 95.8773 4.06867 97.264 4.866C98.6506 5.646 99.7426 6.738 100.54 8.142C101.337 9.546 101.736 11.1407 101.736 12.926C101.736 14.7113 101.337 16.306 100.54 17.71C99.7426 19.114 98.6506 20.2147 97.264 21.012C95.8773 21.792 94.3346 22.182 92.636 22.182ZM92.636 20.128C93.9013 20.128 95.0366 19.8333 96.042 19.244C97.0646 18.6547 97.862 17.814 98.434 16.722C99.0233 15.63 99.318 14.3647 99.318 12.926C99.318 11.47 99.0233 10.2047 98.434 9.13C97.862 8.038 97.0733 7.19733 96.068 6.608C95.0626 6.01867 93.9186 5.724 92.636 5.724C91.3533 5.724 90.2093 6.01867 89.204 6.608C88.1986 7.19733 87.4013 8.038 86.812 9.13C86.24 10.2047 85.954 11.47 85.954 12.926C85.954 14.3647 86.24 15.63 86.812 16.722C87.4013 17.814 88.1986 18.6547 89.204 19.244C90.2266 19.8333 91.3706 20.128 92.636 20.128ZM112.269 12.952L117.833 22H115.155L110.813 14.928L106.679 22H104.053L109.591 12.952L104.027 3.878H106.679L111.047 10.976L115.207 3.878H117.859L112.269 12.952Z" fill="#2b3674"/>
</svg>
