<?xml version="1.0" standalone="no"?>
<!DOCTYPE svg PUBLIC "-//W3C//DTD SVG 20010904//EN"
 "http://www.w3.org/TR/2001/REC-SVG-20010904/DTD/svg10.dtd">
<svg version="1.0" xmlns="http://www.w3.org/2000/svg"
 width="250.000000pt" height="250.000000pt" viewBox="0 0 250.000000 250.000000"
 preserveAspectRatio="xMidYMid meet">
<metadata>
Created by potrace 1.14, written by Peter Selinger 2001-2017
</metadata>
<g transform="translate(0.000000,250.000000) scale(0.100000,-0.100000)"
fill="#000000" stroke="none">
<path d="M1180 1958 l0 -93 140 0 140 0 0 93 0 92 -140 0 -140 0 0 -92z"/>
<path d="M1837 1772 l-48 -49 56 -48 57 -48 46 46 46 47 -49 50 c-27 27 -52
50 -55 50 -3 0 -27 -22 -53 -48z"/>
<path d="M1203 1769 c-61 -10 -172 -50 -222 -81 -69 -42 -152 -111 -143 -120
5 -5 58 -8 118 -6 94 4 118 8 174 33 61 28 73 30 190 30 105 0 134 -4 185 -23
127 -47 238 -144 300 -263 112 -213 73 -459 -100 -635 -151 -153 -371 -203
-561 -127 -60 23 -86 27 -194 30 l-125 3 46 -43 c113 -104 249 -158 416 -165
133 -5 225 12 331 63 247 118 392 349 392 624 0 183 -60 335 -182 466 -164
176 -390 253 -625 214z"/>
<path d="M497 1433 c-4 -3 -7 -37 -7 -75 l0 -68 280 0 281 0 -3 73 -3 72 -271
3 c-149 1 -273 -1 -277 -5z"/>
<path d="M1475 1335 c-104 -90 -125 -104 -156 -105 -76 -1 -144 -79 -135 -153
21 -175 276 -164 276 12 0 39 11 61 91 183 85 131 90 140 72 153 -10 8 -20 14
-23 14 -3 0 -59 -47 -125 -104z"/>
<path d="M360 1085 l0 -75 275 0 275 0 0 75 0 75 -275 0 -275 0 0 -75z"/>
<path d="M567 884 c-4 -4 -7 -38 -7 -76 l0 -68 245 0 246 0 -3 73 -3 72 -236
3 c-129 1 -238 -1 -242 -4z"/>
</g>
</svg>
