<svg width="24" height="24" viewBox="0 0 24 24" fill="none" xmlns="http://www.w3.org/2000/svg">
    <g clip-path="url(#clip0_295_665)">
        <path d="M18.8118 17.29L17.5829 16V11C17.5829 7.93 16.0207 5.36 13.2962 4.68V4C13.2962 3.17 12.658 2.5 11.8673 2.5C11.0766 2.5 10.4384 3.17 10.4384 4V4.68C7.70442 5.36 6.15167 7.92 6.15167 11V16L4.92281 17.29C4.32266 17.92 4.74181 19 5.58963 19H18.1355C18.9928 19 19.412 17.92 18.8118 17.29ZM15.6777 17H8.05688V11C8.05688 8.52 9.49532 6.5 11.8673 6.5C14.2393 6.5 15.6777 8.52 15.6777 11V17ZM11.8673 22C12.9152 22 13.7725 21.1 13.7725 20H9.9621C9.9621 21.1 10.8099 22 11.8673 22Z" fill="#A3AED0"/>
    </g>
    <defs>
        <clipPath id="clip0_295_665">
            <rect width="22.8626" height="24" fill="white" transform="translate(0.436035)"/>
        </clipPath>
    </defs>
</svg>
